<svg xmlns="http://www.w3.org/2000/svg" xmlns:xlink="http://www.w3.org/1999/xlink" version="1.1" x="0px" y="0px" width="100px" height="100px" viewBox="0 0 100 100" enable-background="new 0 0 100 100" xml:space="preserve">
<g id="Captions">
</g>
<g id="Your_Icon">
	<polygon fill-rule="evenodd" clip-rule="evenodd" points="67.949,35.713 68.479,38.256 69.748,38.256 69.219,35.713  "/>
	<polygon fill-rule="evenodd" clip-rule="evenodd" points="67.232,26.179 63.391,7.746 62.121,7.746 65.963,26.179  "/>
	<polygon fill-rule="evenodd" clip-rule="evenodd" points="67.762,28.721 66.492,28.721 67.553,33.806 68.82,33.806  "/>
	<path d="M56.424,93.203l-0.079-0.041l-3.937-4.498c0.502-0.343,0.833-0.921,0.833-1.577c0-0.774-0.464-1.445-1.132-1.743   c1.432-0.741,2.408-2.233,2.408-3.958c0-0.826-1.273-4.447-1.273-8.896c0-2.399-1.133-20.112-1.258-22.07   c0.733-0.265,1.258-0.968,1.258-1.794c0-0.799-0.492-1.484-1.191-1.768l1.09-3.275h0.102c1.053,0,1.91-0.854,1.91-1.905   c0-0.083-0.006-0.164-0.016-0.244h19.717L66.592,4.568H51.975c0-1.054-0.853-1.907-1.908-1.907s-1.91,0.853-1.91,1.907H34.175   l-8.896,36.866h19.718c-0.011,0.08-0.016,0.161-0.016,0.244c0,1.052,0.856,1.905,1.91,1.905h0.102l1.09,3.275   c-0.699,0.283-1.191,0.969-1.191,1.768c0,0.827,0.525,1.529,1.258,1.794c-0.125,1.959-1.258,19.67-1.258,22.07   c0,4.448-1.272,8.182-1.272,8.896c0,1.724,0.974,3.216,2.405,3.957c-0.668,0.298-1.133,0.97-1.133,1.744   c0,0.656,0.33,1.234,0.832,1.577l-3.935,4.498l-0.08,0.041v0.656L39.26,96.4v1.274h21.611V96.4l-4.447-2.541V93.203z M50.066,3.911   c0.363,0,0.658,0.295,0.658,0.657h-1.318C49.406,4.206,49.703,3.911,50.066,3.911z M26.867,40.184L35.16,5.817h30.432l7.703,34.367   H26.867z M46.891,42.333c-0.363,0-0.66-0.294-0.66-0.655c0-0.086,0.018-0.168,0.047-0.244h7.58   c0.029,0.076,0.048,0.158,0.048,0.244c0,0.361-0.297,0.655-0.661,0.655H46.891z M51.512,44.528l-0.438,1.314h-2.014l-0.437-1.314   H51.512z M48.141,48.626c0-0.363,0.293-0.657,0.654-0.657h2.543c0.361,0,0.656,0.294,0.656,0.657c0,0.362-0.295,0.657-0.656,0.657   h-2.543C48.434,49.284,48.141,48.989,48.141,48.626z M46.866,81.417c0.012-0.138,0.124-0.622,0.223-1.051   c0.366-1.593,1.052-4.558,1.052-7.876c0-2.118,0.92-16.726,1.193-20.997h1.468c0.272,4.271,1.192,18.879,1.192,20.997   c0,3.25,0.645,6.048,1.027,7.721c0.111,0.484,0.238,1.032,0.246,1.175c0,1.767-1.436,3.203-3.201,3.203   C48.303,84.589,46.867,83.152,46.866,81.417z M51.991,87.087c0,0.363-0.292,0.656-0.653,0.656h-2.545   c-0.359,0-0.652-0.293-0.652-0.656s0.293-0.659,0.652-0.659h2.545C51.699,86.428,51.991,86.724,51.991,87.087z M48.725,89.419   h2.683l2.196,2.51h-7.076L48.725,89.419z M46.397,93.254h7.338l1.208,0.605h-9.754L46.397,93.254z M58.395,96.425H41.737   l2.303-1.315h12.051L58.395,96.425z"/>
</g>
</svg>