<?xml version="1.0" encoding="UTF-8" standalone="no"?>
<svg width="20px" height="39px" viewBox="0 0 20 39" version="1.1" xmlns="http://www.w3.org/2000/svg" xmlns:xlink="http://www.w3.org/1999/xlink" xmlns:sketch="http://www.bohemiancoding.com/sketch/ns">
    <title>Untitled</title>
    <description>Created with Sketch (http://www.bohemiancoding.com/sketch)</description>
    <defs></defs>
    <g id="Page-1" stroke="none" stroke-width="1" fill="none" fill-rule="evenodd" sketch:type="MSPage">
        <g id="icon_42004" sketch:type="MSLayerGroup" transform="translate(0.000000, 1.000000)" fill="#FFFFFF">
            <g id="Your_Icon" sketch:type="MSShapeGroup">
                <path d="M17.1796,13.0852 L17.3916,14.1024 L17.8992,14.1024 L17.6876,13.0852 L17.1796,13.0852 Z" id="Shape"></path>
                <path d="M16.8928,9.2716 L15.3564,1.8984 L14.8484,1.8984 L16.3852,9.2716 L16.8928,9.2716 Z" id="Shape"></path>
                <path d="M17.1048,10.2884 L16.5968,10.2884 L17.0212,12.3224 L17.528,12.3224 L17.1048,10.2884 Z" id="Shape"></path>
                <path d="M12.5696,36.0812 L12.538,36.0648 L10.9632,34.2656 C11.164,34.1284 11.2964,33.8972 11.2964,33.6348 C11.2964,33.3252 11.1108,33.0568 10.8436,32.9376 C11.4164,32.6412 11.8068,32.0444 11.8068,31.3544 C11.8068,31.024 11.2976,29.5756 11.2976,27.796 C11.2976,26.8364 10.8444,19.7512 10.7944,18.968 C11.0876,18.862 11.2976,18.5808 11.2976,18.2504 C11.2976,17.9308 11.1008,17.6568 10.8212,17.5432 L11.2572,16.2332 L11.298,16.2332 C11.7192,16.2332 12.062,15.8916 12.062,15.4712 C12.062,15.438 12.0596,15.4056 12.0556,15.3736 L19.9424,15.3736 L16.6368,0.6272 L10.79,0.6272 C10.79,0.2056 10.4488,-0.1356 10.0268,-0.1356 C9.6048,-0.1356 9.2628,0.2056 9.2628,0.6272 L3.67,0.6272 L0.1116,15.3736 L7.9988,15.3736 C7.9944,15.4056 7.9924,15.438 7.9924,15.4712 C7.9924,15.892 8.3348,16.2332 8.7564,16.2332 L8.7972,16.2332 L9.2332,17.5432 C8.9536,17.6564 8.7568,17.9308 8.7568,18.2504 C8.7568,18.5812 8.9668,18.862 9.26,18.968 C9.21,19.7516 8.7568,26.836 8.7568,27.796 C8.7568,29.5752 8.248,31.0688 8.248,31.3544 C8.248,32.044 8.6376,32.6408 9.21,32.9372 C8.9428,33.0564 8.7568,33.3252 8.7568,33.6348 C8.7568,33.8972 8.8888,34.1284 9.0896,34.2656 L7.5156,36.0648 L7.4836,36.0812 L7.4836,36.3436 L5.704,37.36 L5.704,37.8696 L14.3484,37.8696 L14.3484,37.36 L12.5696,36.3436 L12.5696,36.0812 L12.5696,36.0812 Z M10.0264,0.3644 C10.1716,0.3644 10.2896,0.4824 10.2896,0.6272 L9.7624,0.6272 C9.7624,0.4824 9.8812,0.3644 10.0264,0.3644 L10.0264,0.3644 Z M0.7468,14.8736 L4.064,1.1268 L16.2368,1.1268 L19.318,14.8736 L0.7468,14.8736 L0.7468,14.8736 Z M8.7564,15.7332 C8.6112,15.7332 8.4924,15.6156 8.4924,15.4712 C8.4924,15.4368 8.4996,15.404 8.5112,15.3736 L11.5432,15.3736 C11.5548,15.404 11.5624,15.4368 11.5624,15.4712 C11.5624,15.6156 11.4436,15.7332 11.298,15.7332 L8.7564,15.7332 L8.7564,15.7332 Z M10.6048,16.6112 L10.4296,17.1368 L9.624,17.1368 L9.4492,16.6112 L10.6048,16.6112 L10.6048,16.6112 Z M9.2564,18.2504 C9.2564,18.1052 9.3736,17.9876 9.518,17.9876 L10.5352,17.9876 C10.6796,17.9876 10.7976,18.1052 10.7976,18.2504 C10.7976,18.3952 10.6796,18.5132 10.5352,18.5132 L9.518,18.5132 C9.3736,18.5136 9.2564,18.3956 9.2564,18.2504 L9.2564,18.2504 Z M8.7464,31.3668 C8.7512,31.3116 8.796,31.118 8.8356,30.9464 C8.982,30.3092 9.2564,29.1232 9.2564,27.796 C9.2564,26.9488 9.6244,21.1056 9.7336,19.3972 L10.3208,19.3972 C10.4296,21.1056 10.7976,26.9488 10.7976,27.796 C10.7976,29.096 11.0556,30.2152 11.2084,30.8844 C11.2528,31.078 11.3036,31.2972 11.3068,31.3544 C11.3068,32.0612 10.7324,32.6356 10.0264,32.6356 C9.3212,32.6356 8.7468,32.0608 8.7464,31.3668 L8.7464,31.3668 Z M10.7964,33.6348 C10.7964,33.78 10.6796,33.8972 10.5352,33.8972 L9.5172,33.8972 C9.3736,33.8972 9.2564,33.78 9.2564,33.6348 C9.2564,33.4896 9.3736,33.3712 9.5172,33.3712 L10.5352,33.3712 C10.6796,33.3712 10.7964,33.4896 10.7964,33.6348 L10.7964,33.6348 Z M9.49,34.5676 L10.5632,34.5676 L11.4416,35.5716 L8.6112,35.5716 L9.49,34.5676 L9.49,34.5676 Z M8.5588,36.1016 L11.494,36.1016 L11.9772,36.3436 L8.0756,36.3436 L8.5588,36.1016 L8.5588,36.1016 Z M13.358,37.37 L6.6948,37.37 L7.616,36.844 L12.4364,36.844 L13.358,37.37 L13.358,37.37 Z" id="Shape"></path>
            </g>
        </g>
    </g>
</svg>